<svg width="24" height="32" viewBox="0 0 24 32" xmlns="http://www.w3.org/2000/svg"><title>Pinpoint</title><path d="M11.744 31.153c-.093-.113.065.29-.45-.383a116.817 116.817 0 0 1-4.32-6.008 76.2 76.2 0 0 1-2.76-4.42C2.1 16.658.93 13.664.93 11.832.93 5.708 5.77.744 11.744.744c5.972 0 10.814 4.964 10.814 11.088 0 1.832-1.17 4.826-3.284 8.51a76.207 76.207 0 0 1-2.761 4.42 116.81 116.81 0 0 1-4.319 6.008c-.515.673-.45.383-.45.383z" stroke="#000" stroke-width="1.5" fill="#FFF" fill-rule="evenodd"/></svg>