<svg id="OBJECTS" xmlns="http://www.w3.org/2000/svg" viewBox="0 0 266.79 62.58"><defs><style>.cls-1{fill:none}.cls-2{font-size:32px;fill:#424242;font-family:Open Sans}.cls-3{font-weight:700}.cls-4{fill:#326868}.cls-5{fill:#fff}.cls-6{clip-path:url(#clip-path)}.cls-7{fill:#b1e291}.cls-8{fill:#759b68}.cls-9{fill:#6f5037}.cls-10{fill:#abb33a}.cls-11{fill:#a0713f}.cls-12{fill:#cae7ff}.cls-13{fill:#b3d5e8}</style><clipPath id="clip-path" transform="translate(-67.67 -20.71)"><circle class="cls-1" cx="98.82" cy="52" r="28.83"/></clipPath></defs><title>LendingReal_logo(finalized)</title><text class="cls-2" transform="translate(76.02 44.02)"><tspan class="cls-3">Lending</tspan><tspan x="127.14" y="0">Real</tspan></text><circle class="cls-4" cx="31.29" cy="31.29" r="31.29"/><circle class="cls-5" cx="31.15" cy="31.29" r="28.83"/><g class="cls-6"><path class="cls-7" d="M33.09 27.61l5.07-9.3v11.96l-5.07-2.66z"/><path class="cls-7" d="M113.59 55.42S89.33 80.71 89.67 80.81a90.82 90.82 0 0 0 9.52 1.44 31 31 0 0 0 12-2.88c.55-.27 2.16-1.13 2.16-1.13z" transform="translate(-67.67 -20.71)"/><path class="cls-4" d="M103.59 66.12h21.13a1.26 1.26 0 0 1 1.28 1.26 1 1 0 0 1-1 1h-21.69a1 1 0 0 1-1-1 1.26 1.26 0 0 1 1.26-1.26z" transform="rotate(-90 69.96 90.72)"/><rect class="cls-4" x="87.96" y="46.22" width="21.72" height="2.35" rx="1.15" ry="1.15" transform="rotate(-152.31 62.434 45.382)"/><path class="cls-4" d="M89.58 41.93L73.86 53.41a1.13 1.13 0 0 0-.25 1.59 1.13 1.13 0 0 0 1.57.25l15.73-11.51a1.13 1.13 0 0 0 .25-1.57 1.13 1.13 0 0 0-1.58-.24z" transform="translate(-67.67 -20.71)"/><path class="cls-4" d="M95.38 41.63h9.39a1.12 1.12 0 0 1 1.12 1.12V43a.88.88 0 0 1-.88.88h-9.88a.88.88 0 0 1-.87-.88v-.24a1.12 1.12 0 0 1 1.12-1.13z" transform="rotate(-90 55.885 66.235)"/><rect class="cls-4" x="98.95" y="36.94" width="7.9" height="2.25" rx="1.13" ry="1.13" transform="rotate(-180 69.06 27.715)"/><rect class="cls-4" x="98.26" y="43.28" width="14.92" height="2.25" rx="1.12" ry="1.12" transform="rotate(-90 61.53 67.88)"/><path class="cls-4" d="M76.73 52.65v20.44A1.27 1.27 0 0 0 78 74.35a1 1 0 0 0 1-1v-21a1 1 0 0 0-1-1 1.27 1.27 0 0 0-1.27 1.3z" transform="translate(-67.67 -20.71)"/><g id="window"><circle class="cls-4" cx="21.44" cy="33.68" r="4.83"/><circle class="cls-5" cx="21.44" cy="33.68" r="2.82"/></g><path class="cls-8" d="M119.39 44.44c3.08 0 13.49 20.71 0 22.28h-.08c-13.31-1.62-2.99-22.28.08-22.28z" transform="translate(-67.67 -20.71)"/><path class="cls-9" d="M52.33 28.86l.25 24.2-2.43 2.28 1.45-19.89.39-6.4.34-.19z"/><path class="cls-9" d="M119 64.24s-3.49-3.17-3.77-3.59a.47.47 0 0 0-.7-.09l4.33 5.06z" transform="translate(-67.67 -20.71)"/><path class="cls-9" d="M52.14 39.77l3.54-4.15.08.37-3.48 4.89-.14-1.11zM52.19 43.02l4.42-2.58v.37l-4.57 3 .15-.79zM51.54 37.32l-3.07-4.28-.1.55 3.17 5.11v-1.38z"/><path class="cls-10" d="M110.51 47.6c3.08 0 13.49 20.71 0 22.28h-.08c-13.3-1.62-3-22.28.08-22.28z" transform="translate(-67.67 -20.71)"/><path class="cls-11" d="M43.45 32.02l.28 26.93-2.52.28 1.5-20.61.4-6.4.34-.2z"/><path class="cls-11" d="M110.14 67.4s-3.49-3.17-3.77-3.59a.47.47 0 0 0-.7-.09l4.33 5.06z" transform="translate(-67.67 -20.71)"/><path class="cls-11" d="M43.25 42.93l3.55-4.15.07.37-3.47 4.89-.15-1.11zM43.31 46.18l4.42-2.58v.37l-4.57 3 .15-.79zM42.65 40.48l-3.07-4.28-.09.55 3.16 5.11v-1.38z"/><path class="cls-12" d="M78.14 40.2a12.24 12.24 0 0 0 7.15-7.09 3.91 3.91 0 1 0-7.82 0v.28a4.24 4.24 0 0 1 .65-.17 3.79 3.79 0 0 1 2.21.23 4.79 4.79 0 0 0-1.87 0 4.51 4.51 0 0 0-2.4 1.21 3.49 3.49 0 0 0 2.08 5.54z" transform="translate(-67.67 -20.71)"/><path class="cls-13" d="M78.14 40.2l.38.05h10.37a2 2 0 1 0 .4-4v-.06a2 2 0 0 0-3.06-1.61 2 2 0 0 0-.92-1.11v-.34a12.24 12.24 0 0 1-7.17 7.07z" transform="translate(-67.67 -20.71)"/><path class="cls-12" d="M103.86 35.07a2.69 2.69 0 0 0 1.1-.24l.04.06a10.58 10.58 0 0 0 7.1-8.4 3.13 3.13 0 0 0-4.25 1.58 1.85 1.85 0 0 1 .23.22l-.26-.16a2.19 2.19 0 0 0-2.83.82 1.83 1.83 0 0 1 .27-.51 1.93 1.93 0 0 0-2.86 1.51 2.13 2.13 0 0 1 .88-.12 2.6 2.6 0 0 0-1 .37 2.7 2.7 0 0 0 1.58 4.87z" transform="translate(-67.67 -20.71)"/><path class="cls-13" d="M105 34.89a2.05 2.05 0 0 0 2.49 0 2.06 2.06 0 0 0 2.91 0 2.88 2.88 0 0 0 4.16-1.43 2.06 2.06 0 0 0-.71-4v-.2a3.13 3.13 0 0 0-1.75-2.81 10.58 10.58 0 0 1-7.1 8.44z" transform="translate(-67.67 -20.71)"/></g></svg>