<svg id="OBJECTS" xmlns="http://www.w3.org/2000/svg" xmlns:xlink="http://www.w3.org/1999/xlink" viewBox="0 0 266.79 62.58"><defs><style>.cls-1{fill:none;}.cls-2{font-size:32px;fill:#424242;font-family:Open Sans;}.cls-3{font-weight:700;}.cls-4{fill:#326868;}.cls-5{fill:#fff;}.cls-6{clip-path:url(#clip-path);}.cls-7{fill:#b1e291;}.cls-8{fill:#759b68;}.cls-9{fill:#6f5037;}.cls-10{fill:#abb33a;}.cls-11{fill:#a0713f;}.cls-12{fill:#cae7ff;}.cls-13{fill:#b3d5e8;}</style><clipPath id="clip-path" transform="translate(-67.67 -20.71)"><circle class="cls-1" cx="98.82" cy="52" r="28.83"/></clipPath></defs><title>LendingReal_logo(finalized)</title><text class="cls-2" transform="translate(76.02 44.02)"><tspan class="cls-3">Lending</tspan><tspan x="127.14" y="0">Real</tspan></text><circle class="cls-4" cx="31.29" cy="31.29" r="31.29"/><circle class="cls-5" cx="31.15" cy="31.29" r="28.83"/><g class="cls-6"><polygon class="cls-7" points="33.09 27.61 38.16 18.31 38.16 30.27 33.09 27.61"/><path class="cls-7" d="M113.59,55.42S89.33,80.71,89.67,80.81a90.82,90.82,0,0,0,9.52,1.44,31,31,0,0,0,12-2.88c0.55-.27,2.16-1.13,2.16-1.13Z" transform="translate(-67.67 -20.71)"/><path class="cls-4" d="M103.59,66.12h21.13A1.26,1.26,0,0,1,126,67.38v0a1,1,0,0,1-1,1H103.31a1,1,0,0,1-1-1v0a1.26,1.26,0,0,1,1.26-1.26Z" transform="translate(-20.76 160.68) rotate(-90)"/><rect class="cls-4" x="87.96" y="46.22" width="21.72" height="2.35" rx="1.15" ry="1.15" transform="translate(96.63 114.58) rotate(-152.31)"/><path class="cls-4" d="M89.58,41.93L73.86,53.41A1.13,1.13,0,0,0,73.61,55h0a1.13,1.13,0,0,0,1.57.25L90.91,43.74a1.13,1.13,0,0,0,.25-1.57h0A1.13,1.13,0,0,0,89.58,41.93Z" transform="translate(-67.67 -20.71)"/><path class="cls-4" d="M95.38,41.63h9.39a1.12,1.12,0,0,1,1.12,1.12V43a0.88,0.88,0,0,1-.88.88H95.13A0.88,0.88,0,0,1,94.26,43V42.76A1.12,1.12,0,0,1,95.38,41.63Z" transform="translate(-10.35 122.12) rotate(-90)"/><rect class="cls-4" x="98.95" y="36.94" width="7.9" height="2.25" rx="1.13" ry="1.13" transform="translate(138.12 55.43) rotate(-180)"/><rect class="cls-4" x="98.26" y="43.28" width="14.92" height="2.25" rx="1.12" ry="1.12" transform="translate(-6.35 129.41) rotate(-90)"/><path class="cls-4" d="M76.73,52.65V73.09A1.27,1.27,0,0,0,78,74.35h0a1,1,0,0,0,1-1v-21a1,1,0,0,0-1-1h0A1.27,1.27,0,0,0,76.73,52.65Z" transform="translate(-67.67 -20.71)"/><g id="window"><circle class="cls-4" cx="21.44" cy="33.68" r="4.83"/><circle class="cls-5" cx="21.44" cy="33.68" r="2.82"/></g><path class="cls-8" d="M119.39,44.44c3.08,0,13.49,20.71,0,22.28h-0.08C106,65.1,116.32,44.44,119.39,44.44Z" transform="translate(-67.67 -20.71)"/><polygon class="cls-9" points="52.33 28.86 52.58 53.06 50.15 55.34 51.6 35.45 51.99 29.05 52.33 28.86"/><path class="cls-9" d="M119,64.24s-3.49-3.17-3.77-3.59a0.47,0.47,0,0,0-.7-0.09l4.33,5.06Z" transform="translate(-67.67 -20.71)"/><polygon class="cls-9" points="52.14 39.77 55.68 35.62 55.76 35.99 52.28 40.88 52.14 39.77"/><polygon class="cls-9" points="52.19 43.02 56.61 40.44 56.61 40.81 52.04 43.81 52.19 43.02"/><polygon class="cls-9" points="51.54 37.32 48.47 33.04 48.37 33.59 51.54 38.7 51.54 37.32"/><path class="cls-10" d="M110.51,47.6c3.08,0,13.49,20.71,0,22.28h-0.08C97.13,68.26,107.43,47.6,110.51,47.6Z" transform="translate(-67.67 -20.71)"/><polygon class="cls-11" points="43.45 32.02 43.73 58.95 41.21 59.23 42.71 38.62 43.11 32.22 43.45 32.02"/><path class="cls-11" d="M110.14,67.4s-3.49-3.17-3.77-3.59a0.47,0.47,0,0,0-.7-0.09L110,68.78Z" transform="translate(-67.67 -20.71)"/><polygon class="cls-11" points="43.25 42.93 46.8 38.78 46.87 39.15 43.4 44.04 43.25 42.93"/><polygon class="cls-11" points="43.31 46.18 47.73 43.6 47.73 43.97 43.16 46.97 43.31 46.18"/><polygon class="cls-11" points="42.65 40.48 39.58 36.2 39.49 36.75 42.65 41.86 42.65 40.48"/><path class="cls-12" d="M78.14,40.2a12.24,12.24,0,0,0,7.15-7.09h0a3.91,3.91,0,1,0-7.82,0c0,0.09,0,.18,0,0.28a4.24,4.24,0,0,1,.65-0.17,3.79,3.79,0,0,1,2.21.23,4.79,4.79,0,0,0-1.87,0,4.51,4.51,0,0,0-2.4,1.21A3.49,3.49,0,0,0,78.14,40.2Z" transform="translate(-67.67 -20.71)"/><path class="cls-13" d="M78.14,40.2l0.38,0.05H88.89a2,2,0,1,0,.4-4h0s0,0,0-.06a2,2,0,0,0-3.06-1.61,2,2,0,0,0-.92-1.11c0-.11,0-0.22,0-0.34A12.24,12.24,0,0,1,78.14,40.2Z" transform="translate(-67.67 -20.71)"/><path class="cls-12" d="M103.86,35.07a2.69,2.69,0,0,0,1.1-.24L105,34.89a10.58,10.58,0,0,0,7.1-8.4,3.13,3.13,0,0,0-4.25,1.58,1.85,1.85,0,0,1,.23.22l-0.26-.16h0l0,0a2.19,2.19,0,0,0-2.83.82,1.83,1.83,0,0,1,.27-0.51,1.93,1.93,0,0,0-2.86,1.51,2.13,2.13,0,0,1,.88-0.12,2.6,2.6,0,0,0-1,.37A2.7,2.7,0,0,0,103.86,35.07Z" transform="translate(-67.67 -20.71)"/><path class="cls-13" d="M105,34.89a2.05,2.05,0,0,0,2.49,0,2.06,2.06,0,0,0,2.91,0,2.88,2.88,0,0,0,4.16-1.43,2.06,2.06,0,0,0-.71-4c0-.07,0-0.13,0-0.2a3.13,3.13,0,0,0-1.75-2.81A10.58,10.58,0,0,1,105,34.89Z" transform="translate(-67.67 -20.71)"/></g></svg>